<?xml version="1.0" encoding="UTF-8"?>
<svg id="Layer_1" xmlns="http://www.w3.org/2000/svg" version="1.1" viewBox="0 0 46 45.9">
  <!-- Generator: Adobe Illustrator 29.8.1, SVG Export Plug-In . SVG Version: 2.1.1 Build 2)  -->
  <path d="M41.3,21.6c-.6-9.1-7.9-16.3-17-16.9V.5h-2.6v4.2c-9.1.6-16.3,7.9-17,16.9H.5v2.6h4.2c.6,9.1,7.9,16.3,17,17v4.2h2.6v-4.2c9.1-.6,16.3-7.9,17-17h4.2v-2.6h-4.2ZM24.3,38.5v-3.6h-2.6v3.6c-7.6-.6-13.7-6.7-14.3-14.3h3.6v-2.6h-3.6c.6-7.6,6.7-13.7,14.3-14.3v3.6h2.6v-3.6c7.6.6,13.7,6.7,14.3,14.3h-3.6v2.6h3.6c-.6,7.6-6.7,13.7-14.3,14.3Z" style="fill: #ccc; stroke: #999; stroke-miterlimit: 10;"/>
</svg>